<?xml version="1.0" encoding="UTF-8" standalone="no"?><!DOCTYPE svg PUBLIC "-//W3C//DTD SVG 1.1//EN" "http://www.w3.org/Graphics/SVG/1.1/DTD/svg11.dtd"><svg width="100%" height="100%" viewBox="0 0 240 480" version="1.1" xmlns="http://www.w3.org/2000/svg" xmlns:xlink="http://www.w3.org/1999/xlink" xml:space="preserve" xmlns:serif="http://www.serif.com/" style="fill-rule:evenodd;clip-rule:evenodd;stroke-linecap:round;stroke-linejoin:round;stroke-miterlimit:1.5;"><g><path d="M192.684,223.801c-3.903,-0.425 -8.826,4.752 -3.649,19.349c5.177,14.597 12.221,19.689 14.767,20.113" style="fill:none;stroke:#000;stroke-width:1.5px;"/><path d="M101.959,157.526c1.91,10.609 4.562,38.614 4.562,48.374" style="fill:none;stroke:#000;stroke-width:2px;"/><path d="M100.221,85.425l7.115,0c-0,0 -3.585,10.7 -3.476,17.761c0.108,7.061 1.36,16.729 1.36,16.729l-7.25,0.077c-0,-0 -0.9,-11.592 -0.574,-17.947c0.326,-6.354 2.825,-16.62 2.825,-16.62Z" style="stroke:#000;stroke-width:2px;"/><path d="M91.772,106.206c-0,0 -14.629,-5.228 -27.743,13.511c-13.113,18.738 -12.267,41.016 -7.095,50.299c5.171,9.282 11.006,13.658 16.708,13.127c5.701,-0.53 15.116,-2.519 16.708,-12.066c1.591,-9.548 0.265,-25.195 0.132,-31.03c-0.132,-5.834 0.296,-12.04 5.727,-15.603" style="fill:none;stroke:#000;stroke-width:2px;"/><path d="M99.56,68.686c0,-0 -3.734,-11.287 -15.021,-9.505c-11.287,1.782 -18.501,15.106 -19.774,25.545c-1.273,10.438 -1.188,25.12 2.631,29.278" style="fill:none;stroke:#000;stroke-width:2px;"/><path d="M92.848,86.877c-2.121,10.468 -2.758,42.399 14.321,42.08c17.08,-0.318 23.339,-13.048 26.203,-24.611c2.864,-11.563 5.426,-39.664 -15.382,-43.069c-17.504,-2.864 -23.02,15.133 -25.142,25.6Z" style="fill:none;stroke:#000;stroke-width:2px;"/><path d="M63.463,84.122c-5.967,-5.138 -10.111,-13.26 -10.442,-24.366c-0.332,-11.105 -0.162,-21.264 10.612,-32.038c10.774,-10.774 23.699,-21.666 51.214,-19.511c27.515,2.155 60.5,14.586 72.766,31.327c12.266,16.742 15.747,28.179 10.443,47.738c-5.304,19.559 -19.725,23.371 -30.002,27.018c-10.277,3.646 -15.912,1.823 -21.879,0.663c-5.967,-1.161 -4.602,4.729 -4.706,6.398c-0.104,1.668 -0.73,13.626 -0.765,14.53c-0.035,0.904 8.471,2.494 12.375,5.55c3.904,3.055 19.944,11.456 11.372,20.028c-8.571,8.571 -26.733,2.206 -33.352,-0.424c-6.62,-2.631 -19.212,-5.262 -38.02,-4.329" style="fill:none;stroke:#000;stroke-width:2.5px;"/><path d="M71.488,109.666c-0,0 -0.761,-7.06 -0.435,-11.243c0.326,-4.182 1.738,-14.773 1.738,-14.773l6.464,0.271c-0,0 -0.978,7.333 -1.195,12.547c-0.217,5.214 0.38,9.831 0.38,9.831l-6.952,3.367Z" style="stroke:#000;stroke-width:2px;"/><path d="M90.811,143.163c0,-0 39.357,0.529 60.065,13.429" style="fill:none;stroke:#000;stroke-width:2px;"/><path d="M146.038,149.442c1.495,1.777 5.145,6.331 5.736,8.556" style="fill:none;stroke:#000;stroke-width:2px;"/><path d="M84.285,47.479c6.192,-2.444 23.659,-8.271 46.33,11.623" style="fill:none;stroke:#000;stroke-width:1.5px;"/><path d="M81.624,37.565c8.603,-3.781 36.295,-10.053 64.414,19.783" style="fill:none;stroke:#000;stroke-width:1.5px;"/><path d="M88.628,27.247c8.354,-4.111 28.245,-12.2 53.705,12.597" style="fill:none;stroke:#000;stroke-width:1.5px;"/><path d="M122.751,158.375c0,0 -10.078,38.402 -11.138,47.525" style="fill:none;stroke:#000;stroke-width:2px;"/><path d="M113.831,199.048c3.796,2.607 7.759,5.987 8.071,6.852c0.313,0.865 -0.625,11.189 -1.251,12.684c-0.626,1.494 -3.441,-5.786 -3.893,-6.586c-0.452,-0.799 -0.229,-1.251 0.424,-3.163c0.653,-1.912 -3.309,7.474 -3.866,9.977c-0.556,2.502 -1.078,-9.177 -1.703,-10.776c-0.626,-1.599 -6.078,6.187 -6.393,8.933c-0.316,2.746 -0.107,0.661 -0.351,2.781c-0.243,2.121 -0.208,2.086 -0.208,2.086l-8.829,-12.723c-0,0 -0.939,-3.545 0.347,-6.882c1.286,-3.337 2.399,-5.075 4.067,-5.979c1.669,-0.904 4.177,-0.452 4.974,-0.487" style="fill:none;stroke:#000;stroke-width:1.5px;"/><path d="M102.512,199.976c0.783,0.926 2.1,3.489 3.364,4.912c1.264,1.424 1.607,2.09 5.295,2.175" style="fill:none;stroke:#000;stroke-width:1.5px;"/><path d="M95.501,209.683c-3.685,3.476 -11.452,13.959 -14.222,19.608c-2.77,5.648 -9.124,17.272 -9.124,17.272c-0,-0 9.722,5.105 12.981,4.996c3.259,-0.108 2.227,0.489 3.421,-1.52c1.195,-2.01 3.857,-15.426 8.745,-22.812" style="fill:none;stroke:#000;stroke-width:1.5px;"/><path d="M85.4,252.307c-1.024,3.359 -2.87,11.501 -2.87,11.501" style="fill:none;stroke:#000;stroke-width:1.5px;"/><path d="M75.005,248.3c0,-0 -13.089,27.266 -14.447,36.119c-1.358,8.853 -3.422,19.064 6.518,17.217c9.939,-1.846 20.367,-8.31 23.898,-10.319c3.53,-2.01 8.962,-6.898 13.687,-6.735c4.725,0.163 10.981,2.607 17.304,7.441c6.323,4.834 9.527,4.182 12.243,0.977c2.715,-3.204 5.92,-12.22 3.367,-17.217c-2.553,-4.997 -7.604,-19.716 -27.537,-18.739c-19.933,0.978 -33.294,11.732 -40.518,15.154" style="fill:none;stroke:#000;stroke-width:1.5px;"/><path d="M119.434,218.59c-0.108,6.898 0.859,36.847 3.813,40.192" style="fill:none;stroke:#000;stroke-width:1.5px;"/><path d="M119.921,220.427c-0,-0 11.731,24.159 11.558,25.593c-0.174,1.434 -9.429,6.822 -9.429,6.822" style="fill:none;stroke:#000;stroke-width:1.5px;"/><path d="M128.872,249.061c-0,0 3.563,8.951 3.563,11.167c-0,2.216 -1.652,3.58 -1.652,3.58" style="fill:none;stroke:#000;stroke-width:1.5px;"/><path d="M26.569,335.324c0.543,-2.376 12.153,-7.807 15.615,-10.998c3.463,-3.191 6.858,-9.03 9.981,-11.474c3.123,-2.444 5.159,0.339 7.264,-0.408c2.105,-0.746 35.101,-19.417 35.101,-19.417l-0.136,-3.666l5.678,-3.21l6.396,-1.042l4.136,0.903l2.781,1.356l4.484,1.85l4.519,3.563l1.694,0.955c0,0 -55.436,27.274 -56.762,28.07c-1.326,0.796 1.139,4.514 -2.143,5.932c-3.281,1.418 -4.839,1.724 -6.841,1.585c-2.002,-0.139 -5.172,0.807 -7.147,1.975c-1.974,1.168 -9.01,1.946 -11.985,2.669c-2.976,0.723 -13.178,3.733 -12.635,1.357Z" style="fill:none;stroke:#000;stroke-width:1.5px;"/><path d="M49.813,315.642c-0.155,2.447 2.336,12.013 6.652,13.125" style="fill:none;stroke:#000;stroke-width:1.5px;"/><path d="M57.422,312.794c-1.068,3.026 -2.02,11.015 9.444,8.946" style="fill:none;stroke:#000;stroke-width:1.5px;"/><path d="M65.036,316.004c1.425,-0.869 8.447,-4.971 8.447,-4.971" style="fill:none;stroke:#000;stroke-width:3.51px;"/><path d="M80.852,308.218l4.102,-2.468" style="fill:none;stroke:#000;stroke-width:3.51px;"/><path d="M99.623,298.033l7.821,-2.955" style="fill:none;stroke:#000;stroke-width:3.51px;"/><path d="M113.265,292.856l3.862,-2.065" style="fill:none;stroke:#000;stroke-width:3.51px;"/><path d="M140.138,278.737l3.53,-1.63" style="fill:none;stroke:#000;stroke-width:3.51px;"/><path d="M148.556,274.826l8.365,-5.268" style="fill:none;stroke:#000;stroke-width:3.92px;"/><path d="M131.823,263.448c-0,0 35.973,-25.353 46.369,-39.038" style="fill:none;stroke:#000;stroke-width:1.5px;"/><path d="M181.783,244.195c7.103,23.552 43.653,54.946 27.66,-4.344c-9.324,-34.568 -42.013,-43.248 -27.66,4.344Z" style="fill:none;stroke:#000;stroke-width:1.5px;"/><path d="M195.822,267.973l-8.014,2.987" style="fill:none;stroke:#000;stroke-width:1.5px;"/><path d="M137.567,287.322l20.572,-8.585" style="fill:none;stroke:#000;stroke-width:1.5px;"/><path d="M102.034,304.902c-0,0 21.78,1.684 25.202,-1.358c3.421,-3.041 2.824,-5.214 2.172,-7.604" style="fill:none;stroke:#000;stroke-width:1.5px;"/><path d="M129.911,301.336c2.148,0.087 4.147,1.043 6.015,3.042c1.868,1.999 22.417,12.017 37.481,-2.304c15.063,-14.321 12.914,-19.24 13.262,-24.197c0.257,-3.647 0.295,-22.024 -14.854,-23.116c-11.775,-0.849 -12.091,27.457 -13.676,32.142c-1.931,5.706 -10.286,-3.194 -10.286,-3.194" style="fill:none;stroke:#000;stroke-width:1.5px;"/><path d="M187.808,232.929c2.341,0.271 7.881,4.073 9.89,9.831c2.01,5.757 3.694,13.578 2.879,17.543" style="fill:none;stroke:#000;stroke-width:1.5px;"/><path d="M154.646,246.616c-0.131,4.41 1.781,18.401 6.257,21.921" style="fill:none;stroke:#000;stroke-width:1.5px;"/><path d="M161.294,241.032c-0.348,5.215 -0.044,14.861 2.911,18.467" style="fill:none;stroke:#000;stroke-width:1.5px;"/><path d="M84.801,313.63c0.271,4.726 3.693,14.448 12.329,15.045" style="fill:none;stroke:#000;stroke-width:1.5px;"/><path d="M126.025,304.56c-0.055,6.3 -2.227,21.78 -10.646,25.69" style="fill:none;stroke:#000;stroke-width:1.5px;"/><path d="M61.026,437.739c6.518,-0.204 33.946,3.53 34.761,-18.603c0.815,-22.133 0.747,-90.461 0.747,-90.461" style="fill:none;stroke:#000;stroke-width:2px;"/><path d="M67.545,445.669c-6.111,-4.753 -7.672,-8.283 -9.437,-11.882c-1.766,-3.598 -5.228,-9.301 -8.623,-10.116c-3.394,-0.814 -9.776,2.988 -11.066,15.548c-1.29,12.56 -0,14.732 0.747,16.362c0.746,1.629 15.411,10.998 23.287,11.406c7.875,0.407 16.022,-0.068 23.898,-2.037c7.875,-1.969 20.639,-6.586 20.639,-6.586c0,0 -0.325,-10.201 -0.059,-17.627c0.265,-7.426 -1.711,-110.487 -1.711,-110.487" style="fill:none;stroke:#000;stroke-width:2px;"/><path d="M53.723,424.368c0.271,-5.703 3.938,-15.412 8.419,-15.276c4.48,0.136 7.536,4.345 8.215,8.487c0.678,4.141 -0.272,4.956 2.715,5.159c2.987,0.204 18.806,0.068 21.997,-1.629" style="fill:none;stroke:#000;stroke-width:1.5px;"/><path d="M71.378,422.336l-1.307,2.698" style="fill:none;stroke:#000;stroke-width:1.5px;"/><path d="M114.274,330.25c-0.397,15.134 1.061,65.787 4.244,80.506c3.182,14.719 4.954,23.794 11.743,26.255c6.789,2.462 16.209,4.329 20.452,3.904" style="fill:none;stroke:#000;stroke-width:2px;"/><path d="M145.537,448.044c-0,-0 8.401,-7.553 10.862,-11.287c2.461,-3.734 6.365,-10.608 9.59,-10.269c3.225,0.34 7.214,0.679 11.712,12.475c4.497,11.797 1.442,22.405 -0.17,24.526c-1.613,2.122 -13.663,8.826 -25.46,8.572c-11.796,-0.255 -19.688,-1.818 -26.223,-4.94c-6.535,-3.122 -18.858,-10.421 -18.858,-10.421" style="fill:none;stroke:#000;stroke-width:2px;"/><path d="M119.977,326.898c0.434,9.613 4.151,93.757 9.588,97.205c5.436,3.447 20.98,5.613 23.967,4.038c2.988,-1.575 6.192,-6.735 6.627,-8.31c0.434,-1.575 1.466,-6.3 3.965,-6.3c2.498,-0 8.527,5.811 9.668,10.482c1.14,4.671 1.194,8.256 1.194,8.256" style="fill:none;stroke:#000;stroke-width:1.5px;"/><path d="M155.84,430.783c-0.668,-1.001 -2.247,-2.047 -3.649,-2.291" style="fill:none;stroke:#000;stroke-width:1.5px;"/><path d="M165.152,441.542c-0.78,6.098 5.675,8.024 6.604,0.609c1.098,-8.766 -5.665,-7.949 -6.604,-0.609Z" style="fill:none;stroke:#000;stroke-width:1.5px;"/><path d="M165.152,441.542c-0.78,6.098 5.675,8.024 6.604,0.609c1.098,-8.766 -5.665,-7.949 -6.604,-0.609Z" style="fill:none;stroke:#000;stroke-width:1.5px;"/><path d="M155.901,463.329c-0.726,5.551 5.276,7.304 6.139,0.554c1.021,-7.98 -5.267,-7.236 -6.139,-0.554Z" style="fill:none;stroke:#000;stroke-width:1.5px;"/><path d="M168.932,461.877c-0.78,6.098 5.675,8.024 6.604,0.609c1.099,-8.766 -5.665,-7.948 -6.604,-0.609Z" style="fill:none;stroke:#000;stroke-width:1.5px;"/><path d="M48.909,438.077c-0.063,5.797 -4.875,7.11 -4.784,0.061c0.107,-8.332 4.859,-7.04 4.784,-0.061Z" style="fill:none;stroke:#000;stroke-width:1.5px;"/><path d="M39.241,454.762c1.844,5.864 8.513,4.911 6.253,-2.212c-2.672,-8.42 -8.473,-4.847 -6.253,2.212Z" style="fill:none;stroke:#000;stroke-width:1.5px;"/><path d="M55.889,458.162c0.673,6.098 -4.903,8.024 -5.705,0.609c-0.949,-8.766 4.893,-7.949 5.705,-0.609Z" style="fill:none;stroke:#000;stroke-width:1.5px;"/></g></svg>